<svg width="116" height="108" viewBox="0 0 116 108" fill="none" xmlns="http://www.w3.org/2000/svg">
    <path d="M51.2011 10.9638C54.3298 5.91863 61.6702 5.91863 64.7989 10.9638L100.654 68.7839C103.959 74.1132 100.126 81 93.8552 81H22.1448C15.8739 81 12.0411 74.1132 15.3459 68.7839L51.2011 10.9638Z" fill="#424242"/>
    <path d="M62.6158 39.104C62.6158 42.56 62.4878 45.7813 62.2318 48.768C61.9758 51.7547 61.6344 54.784 61.2078 57.856H53.9118C53.4851 54.784 53.1224 51.7547 52.8238 48.768C52.5678 45.7813 52.4398 42.56 52.4398 39.104V27.648H62.6158V39.104ZM63.4478 66.944C63.4478 68.8213 62.8291 70.272 61.5918 71.296C60.3971 72.32 59.0318 72.832 57.4958 72.832C55.9598 72.832 54.5731 72.32 53.3358 71.296C52.1411 70.272 51.5438 68.8213 51.5438 66.944C51.5438 65.0667 52.1411 63.616 53.3358 62.592C54.5731 61.568 55.9598 61.056 57.4958 61.056C59.0318 61.056 60.3971 61.568 61.5918 62.592C62.8291 63.616 63.4478 65.0667 63.4478 66.944Z" fill="#202020"/>
</svg>
